<svg xmlns="http://www.w3.org/2000/svg" width="61.864" height="61.864" viewBox="0 0 61.864 61.864"><defs><style>.a{fill:#fff;}</style></defs><path class="a" d="M30.932,0A30.932,30.932,0,1,0,61.864,30.932,30.967,30.967,0,0,0,30.932,0Zm0,59.8A28.87,28.87,0,1,1,59.8,30.932,28.9,28.9,0,0,1,30.932,59.8Z"/><path class="a" d="M31.4,26.367V15.91a1.031,1.031,0,1,0-2.062,0V26.367a4.119,4.119,0,0,0-2.947,2.947H19.031a1.031,1.031,0,0,0,0,2.062h7.364A4.116,4.116,0,1,0,31.4,26.367Zm-1.031,6.04a2.062,2.062,0,1,1,2.062-2.062A2.064,2.064,0,0,1,30.373,32.407Z" transform="translate(0.559 0.462)"/><path class="a" d="M30.031,9.972a1.031,1.031,0,0,0,1.031-1.031V7.91A1.031,1.031,0,0,0,29,7.91V8.941A1.031,1.031,0,0,0,30.031,9.972Z" transform="translate(0.901 0.214)"/><path class="a" d="M30.031,49.879A1.031,1.031,0,0,0,29,50.91v1.031a1.031,1.031,0,1,0,2.062,0V50.91A1.031,1.031,0,0,0,30.031,49.879Z" transform="translate(0.901 1.549)"/><path class="a" d="M52.062,28.879H51.031a1.031,1.031,0,0,0,0,2.062h1.031a1.031,1.031,0,0,0,0-2.062Z" transform="translate(1.553 0.897)"/><path class="a" d="M9.062,28.879H8.031a1.031,1.031,0,0,0,0,2.062H9.062a1.031,1.031,0,0,0,0-2.062Z" transform="translate(0.217 0.897)"/><path class="a" d="M44.88,13.624l-.729.729a1.031,1.031,0,1,0,1.458,1.458l.729-.729a1.031,1.031,0,0,0-1.458-1.458Z" transform="translate(1.362 0.414)"/><path class="a" d="M14.475,44.03l-.729.729A1.031,1.031,0,1,0,15.2,46.217l.729-.729a1.031,1.031,0,0,0-1.458-1.458Z" transform="translate(0.418 1.358)"/><path class="a" d="M45.609,44.03a1.031,1.031,0,0,0-1.458,1.458l.729.729a1.031,1.031,0,0,0,1.458-1.458Z" transform="translate(1.362 1.358)"/><path class="a" d="M15.2,13.624a1.031,1.031,0,0,0-1.458,1.458l.729.729a1.031,1.031,0,0,0,1.458-1.458Z" transform="translate(0.418 0.414)"/></svg>